<?xml version="1.0" encoding="utf-8"?>
<!-- Generator: Adobe Illustrator 27.5.0, SVG Export Plug-In . SVG Version: 6.00 Build 0)  -->
<svg version="1.1" id="Object" xmlns="http://www.w3.org/2000/svg" xmlns:xlink="http://www.w3.org/1999/xlink" x="0px" y="0px"
	 viewBox="0 0 600 600" style="enable-background:new 0 0 600 600;" xml:space="preserve">
<g>
	<g>
		<circle style="fill:#FFFF99;" cx="300.61" cy="315.083" r="130.462"/>
	</g>
	<g>
		<g>
			<g>
				<path style="fill:#FFF9B8;" d="M348.15,242.68v75.96c0,15.54-12.51,28.34-28.05,28.38h-40.2
					c-15.54-0.04-28.05-12.84-28.05-28.38v-76.76c0-26.86,22.01-48.59,48.98-48.14c8.79,0.15,16.97,2.69,23.97,7
					C338.84,209.36,348.15,225.06,348.15,242.68z"/>
			</g>
			<g>
				<path style="fill:#FFFFFF;" d="M288.708,287.759h-2.858c-4.718,0-8.543-3.825-8.543-8.543v-28.5
					c0-4.718,3.825-8.543,8.543-8.543h2.858c4.718,0,8.543,3.825,8.543,8.543v28.5C297.251,283.934,293.426,287.759,288.708,287.759
					z"/>
			</g>
			<g>
				<path style="fill:#FFFFFF;" d="M322.613,287.759h-2.858c-4.718,0-8.543-3.825-8.543-8.543v-28.5
					c0-4.718,3.825-8.543,8.543-8.543h2.858c4.718,0,8.543,3.825,8.543,8.543v28.5C331.156,283.934,327.331,287.759,322.613,287.759
					z"/>
			</g>
			<path style="fill:#FFFFFF;" d="M324.8,200.74c-32.549-2.006-65.514,17.26-72.95,43.5v-2.36c0-26.86,22.01-48.59,48.98-48.14
				C309.62,193.89,317.8,196.43,324.8,200.74z"/>
			<path style="fill:#BFBB8A;" d="M348.15,318.51v0.13c0,15.54-12.51,28.34-28.05,28.38h-40.2c-15.54-0.04-28.05-12.84-28.05-28.38
				v-14.27l15.302,19.543c3.256,4.158,8.243,6.587,13.524,6.587h48.369c4.555,0,8.924-1.81,12.145-5.031L348.15,318.51z"/>
			<g>
				<path style="fill:#540F50;" d="M319.801,352.019l-39.896-0.001c-18.232-0.051-33.055-15.025-33.055-33.381v-76.754
					c0-14.365,5.642-27.823,15.886-37.897c10.242-10.071,23.786-15.493,38.174-15.244c28.805,0.482,52.239,24.677,52.239,53.934
					v75.962c0,18.355-14.822,33.33-33.041,33.381L319.801,352.019z M299.996,198.734c-11.396,0-22.11,4.38-30.248,12.382
					c-8.317,8.179-12.897,19.105-12.897,30.768v76.754c0,12.857,10.349,23.346,23.068,23.381l0.28,0.001l39.896-0.001
					c12.706-0.035,23.055-10.523,23.055-23.381v-75.962c0-23.834-19.023-43.543-42.407-43.936
					C300.494,198.736,300.243,198.734,299.996,198.734z"/>
			</g>
			<g>
				<path style="fill:#540F50;" d="M294.903,262.123h-3.287c-3.78,0-6.845-3.065-6.845-6.845v-3.467c0-3.78,3.065-6.845,6.845-6.845
					h3.287c3.78,0,6.845,3.065,6.845,6.845v3.467C301.748,259.059,298.683,262.123,294.903,262.123z"/>
			</g>
			<g>
				<path style="fill:#540F50;" d="M328.808,262.123h-3.287c-3.78,0-6.845-3.065-6.845-6.845v-3.467c0-3.78,3.065-6.845,6.845-6.845
					h3.287c3.78,0,6.845,3.065,6.845,6.845v3.467C335.653,259.059,332.588,262.123,328.808,262.123z"/>
			</g>
			<g>
				<path style="fill:#540F50;" d="M288.708,292.76h-2.858c-7.468,0-13.543-6.076-13.543-13.544v-28.5
					c0-7.468,6.075-13.543,13.543-13.543h2.858c7.468,0,13.543,6.075,13.543,13.543v28.5
					C302.251,286.684,296.176,292.76,288.708,292.76z M285.85,247.173c-1.953,0-3.543,1.59-3.543,3.543v28.5
					c0,1.954,1.59,3.544,3.543,3.544h2.858c1.953,0,3.543-1.59,3.543-3.544v-28.5c0-1.953-1.59-3.543-3.543-3.543H285.85z"/>
			</g>
			<g>
				<path style="fill:#540F50;" d="M322.612,292.76h-2.857c-7.468,0-13.543-6.076-13.543-13.544v-28.5
					c0-7.468,6.075-13.543,13.543-13.543h2.857c7.468,0,13.543,6.075,13.543,13.543v28.5
					C336.155,286.684,330.08,292.76,322.612,292.76z M319.755,247.173c-1.953,0-3.543,1.59-3.543,3.543v28.5
					c0,1.954,1.59,3.544,3.543,3.544h2.857c1.953,0,3.543-1.59,3.543-3.544v-28.5c0-1.953-1.59-3.543-3.543-3.543H319.755z"/>
			</g>
			<g>
				<path style="fill:#540F50;" d="M307.511,321.35c-2.762,0-5-2.238-5-5v-15.391c0-2.762,2.238-5,5-5s5,2.238,5,5v15.391
					C312.511,319.111,310.272,321.35,307.511,321.35z"/>
			</g>
		</g>
		<g style="opacity:0.2;">
			<path style="fill:#44C8F5;" d="M449.382,221.364c0,34.703-14.064,66.108-36.799,88.854
				c-15.025,15.013-33.835,26.253-54.88,32.145c-10.8,3.033-22.202,4.653-33.974,4.653h-47.46c-11.772,0-23.174-1.621-33.974-4.653
				c-52.889-14.817-91.678-63.376-91.678-120.999c0-34.703,14.064-66.108,36.799-88.854c22.746-22.734,54.162-36.799,88.854-36.799
				h47.46C393.125,95.712,449.382,151.969,449.382,221.364z"/>
		</g>
		<g>
			<path style="fill:#540F50;" d="M323.729,352.017h-47.459c-12.003,0-23.889-1.628-35.326-4.84
				c-56.126-15.724-95.326-67.46-95.326-125.813c0-34.892,13.589-67.703,38.263-92.389c24.687-24.675,57.498-38.264,92.39-38.264
				h47.459c72.042,0,130.652,58.61,130.652,130.652c0,34.891-13.589,67.701-38.263,92.388
				c-15.868,15.857-35.602,27.415-57.066,33.426C347.618,350.389,335.732,352.017,323.729,352.017z M276.271,100.712
				c-32.222,0-62.521,12.549-85.318,35.335c-22.785,22.796-35.334,53.096-35.334,85.317c0,53.887,36.198,101.664,88.026,116.185
				c10.561,2.965,21.536,4.468,32.626,4.468h47.459c11.09,0,22.065-1.503,32.623-4.467c19.82-5.55,38.041-16.224,52.696-30.869
				c22.784-22.796,35.333-53.096,35.333-85.316c0-66.528-54.124-120.652-120.652-120.652H276.271z"/>
		</g>
		<g>
			<g>
				
					<rect x="263.367" y="425.097" transform="matrix(0.9836 0.1806 -0.1806 0.9836 84.3038 -41.4814)" style="fill:#FFF200;" width="13.108" height="34.128"/>
			</g>
			<g>
				<path style="fill:#540F50;" d="M277.3,465.948l-22.729-4.173l7.972-43.401l22.728,4.173L277.3,465.948z M266.214,453.746
					l3.057,0.562l4.357-23.731l-3.056-0.562L266.214,453.746z"/>
			</g>
			<g>
				<path style="fill:#44C8F5;" d="M276.03,475.45l-31.08,21.14c-1.98,1.34-4.68,0.83-6.03-1.15l-0.19-0.29
					c-0.75-1.11-1.35-2.28-1.78-3.49c-2.44-6.65-0.15-14.35,5.97-18.51l21.58-14.67c0.44-0.29,0.91-0.5,1.39-0.61
					c1.71-0.43,3.59,0.22,4.63,1.76l6.66,9.79C278.53,471.41,278.01,474.1,276.03,475.45z"/>
			</g>
			<path style="fill:#3396B8;" d="M276.03,475.45l-31.08,21.14c-1.98,1.34-4.68,0.83-6.03-1.15l-0.19-0.29
				c-0.75-1.11-1.35-2.28-1.78-3.49l22.964-18.012c3.216-2.523,5.229-6.277,5.549-10.352l0.427-5.426c1.71-0.43,3.59,0.22,4.63,1.76
				l6.66,9.79C278.53,471.41,278.01,474.1,276.03,475.45z"/>
			<g>
				<path style="fill:#540F50;" d="M242.523,502.333c-2.99,0-5.93-1.431-7.734-4.084l-0.194-0.286
					c-6.46-9.5-3.986-22.483,5.513-28.943l21.579-14.672c4.257-2.895,10.075-1.786,12.97,2.471l6.66,9.795
					c1.402,2.063,1.918,4.547,1.451,6.997s-1.86,4.571-3.923,5.974L247.76,500.72C246.156,501.81,244.331,502.333,242.523,502.333z
					 M242.137,492.45L242.137,492.45L242.137,492.45z M266.76,462.99l-21.029,14.299c-4.853,3.3-6.18,9.872-3.041,14.786
					l29.984-20.389L266.76,462.99z"/>
			</g>
			<g>
				
					<rect x="316.989" y="418.351" transform="matrix(-0.9775 0.2109 -0.2109 -0.9775 731.6268 792.8134)" style="fill:#FFF200;" width="13.108" height="34.128"/>
			</g>
			<g>
				<path style="fill:#540F50;" d="M316.901,459.42l-9.305-43.136l22.588-4.874l9.305,43.136L316.901,459.42z M319.479,423.95
					l5.088,23.585l3.039-0.655l-5.088-23.585L319.479,423.95z"/>
			</g>
			<g>
				<path style="fill:#44C8F5;" d="M362.74,468.46l-0.05,0.35c0,0.03-0.01,0.06-0.02,0.09c-0.38,2.32-2.54,3.93-4.88,3.59
					l-37.22-5.31c-2.37-0.34-4.02-2.53-3.68-4.9l1.67-11.73c0.2-1.39,1.04-2.52,2.17-3.16c0.8-0.46,1.76-0.66,2.74-0.52l25.83,3.69
					C357.96,451.79,363.97,459.81,362.74,468.46z"/>
			</g>
			<path style="fill:#3396B8;" d="M363.67,467.9c-0.38,2.32-2.54,3.93-4.88,3.59l-37.22-5.31c-2.37-0.34-4.02-2.53-3.68-4.9
				l1.67-11.73c0.2-1.39,1.04-2.52,2.17-3.16l0.554,1.449c2.146,5.609,6.787,9.895,12.549,11.588L363.67,467.9z"/>
			<g>
				<path style="fill:#540F50;" d="M357.105,479.85c-0.856,0-1.718-0.119-2.564-0.359l-36.162-10.264
					c-2.398-0.68-4.389-2.254-5.604-4.432c-1.215-2.178-1.509-4.699-0.827-7.099l3.232-11.394c1.406-4.952,6.581-7.836,11.53-6.434
					l25.104,7.126c11.05,3.136,17.489,14.678,14.354,25.729l-0.094,0.33c-0.683,2.404-2.258,4.395-4.435,5.609
					C360.229,479.449,358.677,479.85,357.105,479.85z M321.748,459.788l34.881,9.9c1.428-5.655-1.903-11.472-7.546-13.074
					l-24.464-6.943L321.748,459.788z"/>
			</g>
			<g>
				<path style="fill:#44C8F5;" d="M264.407,427.879h72.342c6.296,0,11.4-5.104,11.4-11.4v-37.023
					c0-17.915-14.523-32.438-32.438-32.438h-30.266c-17.915,0-32.438,14.523-32.438,32.438v37.023
					C253.008,422.775,258.111,427.879,264.407,427.879z"/>
			</g>
			<path style="fill:#3396B8;" d="M333.28,411.41h-52.71c-6.028,0-11.704-2.837-15.323-7.657l-12.239-16.304v23.961l0,0
				c2.005,0.341,3.472,2.079,3.472,4.113v0.957c0,6.296,5.104,11.4,11.4,11.4h65.4c6.29,0,11.4-5.1,11.4-11.4v-16.47
				C344.68,406.31,339.57,411.41,333.28,411.41z"/>
			<g>
				<path style="fill:#540F50;" d="M336.749,432.879h-72.342c-9.043,0-16.399-7.356-16.399-16.399v-37.022
					c0-20.644,16.794-37.438,37.438-37.438h30.266c20.644,0,37.438,16.794,37.438,37.438v37.022
					C353.149,425.522,345.792,432.879,336.749,432.879z M285.445,352.019c-15.129,0-27.438,12.309-27.438,27.438v37.022
					c0,3.528,2.871,6.399,6.399,6.399h72.342c3.529,0,6.4-2.871,6.4-6.399v-37.022c0-15.129-12.309-27.438-27.438-27.438H285.445z"
					/>
			</g>
			<g>
				<path style="fill:#FFF200;" d="M317.631,393.883h-24.104c-7.415,0-13.426-6.011-13.426-13.426v-1.576
					c0-7.415,6.011-13.426,13.426-13.426h24.104c7.415,0,13.426,6.011,13.426,13.426v1.576
					C331.057,387.872,325.046,393.883,317.631,393.883z"/>
			</g>
			<g>
				<path style="fill:#BFB600;" d="M331.06,378.879v1.58c0,7.41-6.01,13.42-13.43,13.42h-24.1c-7.42,0-13.43-6.01-13.43-13.42v-1.58
					c0-2.03,0.45-3.96,1.26-5.69c2.15,4.57,6.79,7.73,12.17,7.73h24.1c5.38,0,10.02-3.16,12.17-7.73
					C330.61,374.92,331.06,376.85,331.06,378.879z"/>
			</g>
			<g>
				<path style="fill:#540F50;" d="M317.63,398.883h-24.104c-10.16,0-18.427-8.266-18.427-18.426v-1.576
					c0-10.16,8.267-18.426,18.427-18.426h24.104c10.16,0,18.427,8.266,18.427,18.426v1.576
					C336.057,390.617,327.79,398.883,317.63,398.883z M293.527,370.455c-4.646,0-8.427,3.78-8.427,8.426v1.576
					c0,4.646,3.78,8.426,8.427,8.426h24.104c4.646,0,8.427-3.78,8.427-8.426v-1.576c0-4.646-3.78-8.426-8.427-8.426H293.527z"/>
			</g>
		</g>
		<path style="fill:#540F50;" d="M398.53,347.747c-3.198-4.704-9.604-5.924-14.308-2.726l-2.636,1.792
			c-3.146,2.139-4.723,5.712-4.473,9.252l-30.846,12.537c-2.558,1.04-3.789,3.956-2.749,6.515c0.789,1.941,2.659,3.118,4.634,3.118
			c0.627,0,1.265-0.118,1.881-0.369l32.764-13.317c3.222,1.597,7.185,1.463,10.371-0.702l2.636-1.792
			C400.507,358.857,401.728,352.451,398.53,347.747z"/>
		<path style="fill:#540F50;" d="M255.715,376.391c-2.18-1.697-5.32-1.309-7.018,0.869l-17.667,22.666
			c-2.681-1.263-5.883-1.366-8.775-0.008l-2.885,1.355c-5.148,2.419-7.361,8.553-4.942,13.701c2.419,5.148,8.553,7.361,13.701,4.942
			l2.885-1.356c3.921-1.842,6.131-5.839,5.898-9.915l19.672-25.238C258.282,381.229,257.893,378.088,255.715,376.391z"/>
		<g style="opacity:0.2;">
			<ellipse style="fill:#333333;" cx="300.61" cy="498.434" rx="98.715" ry="10.854"/>
		</g>
		<g>
			<path style="fill:#FFFFFF;" d="M200.979,177.112c-2.026,0-4.071-0.608-5.846-1.874c-4.535-3.234-5.589-9.531-2.356-14.065
				c10.852-15.219,29.884-34.87,58.926-42.061c5.406-1.338,10.874,1.959,12.212,7.365c1.339,5.406-1.959,10.874-7.365,12.212
				c-23.056,5.709-38.477,21.745-47.353,34.193C207.231,175.641,204.128,177.112,200.979,177.112z"/>
		</g>
	</g>
</g>
</svg>
